<svg width="103" height="46" viewBox="0 0 103 46" fill="none" xmlns="http://www.w3.org/2000/svg">
<path d="M2.07083 44.6528V41.4908L20.1128 23.8208C21.7662 22.2088 23.0062 20.8035 23.8328 19.6048C24.6595 18.3648 25.2175 17.2075 25.5068 16.1328C25.7962 15.0582 25.9408 14.0455 25.9408 13.0948C25.9408 10.5735 25.0728 8.5895 23.3368 7.14283C21.6422 5.69616 19.1208 4.97283 15.7728 4.97283C13.2102 4.97283 10.9368 5.3655 8.95283 6.15083C7.01017 6.93616 5.33617 8.1555 3.93083 9.80883L0.768832 7.08083C2.4635 5.09683 4.6335 3.5675 7.27883 2.49283C9.92417 1.41816 12.8795 0.88083 16.1448 0.88083C19.0795 0.88083 21.6215 1.35616 23.7708 2.30683C25.9202 3.21616 27.5735 4.5595 28.7308 6.33683C29.9295 8.11416 30.5288 10.2015 30.5288 12.5988C30.5288 14.0042 30.3222 15.3888 29.9088 16.7528C29.5368 18.1168 28.8342 19.5635 27.8008 21.0928C26.8088 22.5808 25.3415 24.2755 23.3988 26.1768L6.84483 42.4208L5.60483 40.6848H32.5128V44.6528H2.07083ZM52.7471 45.0248C49.2751 45.0248 46.2784 44.5288 43.7571 43.5368C41.2771 42.5448 39.3551 41.1188 37.9911 39.2588C36.6684 37.3575 36.0071 35.1255 36.0071 32.5628C36.0071 30.0828 36.6478 27.9748 37.9291 26.2388C39.2518 24.4615 41.1531 23.0975 43.6331 22.1468C46.1544 21.1962 49.1924 20.7208 52.7471 20.7208C56.2604 20.7208 59.2778 21.1962 61.7991 22.1468C64.3204 23.0975 66.2424 24.4615 67.5651 26.2388C68.9291 27.9748 69.6111 30.0828 69.6111 32.5628C69.6111 35.1255 68.9291 37.3575 67.5651 39.2588C66.2011 41.1188 64.2584 42.5448 61.7371 43.5368C59.2158 44.5288 56.2191 45.0248 52.7471 45.0248ZM52.7471 41.2428C56.5911 41.2428 59.5878 40.4575 61.7371 38.8868C63.9278 37.3162 65.0231 35.1875 65.0231 32.5008C65.0231 29.8142 63.9278 27.7062 61.7371 26.1768C59.5878 24.6062 56.5911 23.8208 52.7471 23.8208C48.9031 23.8208 45.9064 24.6062 43.7571 26.1768C41.6078 27.7062 40.5331 29.8142 40.5331 32.5008C40.5331 35.1875 41.6078 37.3162 43.7571 38.8868C45.9064 40.4575 48.9031 41.2428 52.7471 41.2428ZM52.7471 23.2628C49.5231 23.2628 46.7744 22.8288 44.5011 21.9608C42.2691 21.0928 40.5538 19.8528 39.3551 18.2408C38.1564 16.5875 37.5571 14.6242 37.5571 12.3508C37.5571 9.9535 38.1771 7.9075 39.4171 6.21283C40.6984 4.47683 42.4758 3.15416 44.7491 2.24483C47.0224 1.3355 49.6884 0.88083 52.7471 0.88083C55.8058 0.88083 58.4718 1.3355 60.7451 2.24483C63.0598 3.15416 64.8578 4.47683 66.1391 6.21283C67.4204 7.9075 68.0611 9.9535 68.0611 12.3508C68.0611 14.6242 67.4618 16.5875 66.2631 18.2408C65.0644 19.8528 63.3078 21.0928 60.9931 21.9608C58.7198 22.8288 55.9711 23.2628 52.7471 23.2628ZM52.7471 20.2868C56.1364 20.2868 58.7818 19.5842 60.6831 18.1788C62.5844 16.7735 63.5351 14.8928 63.5351 12.5368C63.5351 10.0568 62.5431 8.13483 60.5591 6.77083C58.6164 5.3655 56.0124 4.66283 52.7471 4.66283C49.4818 4.66283 46.8778 5.3655 44.9351 6.77083C42.9924 8.13483 42.0211 10.0362 42.0211 12.4748C42.0211 14.8722 42.9511 16.7735 44.8111 18.1788C46.7124 19.5842 49.3578 20.2868 52.7471 20.2868Z" fill="white"/>
<path d="M86.5802 36.0968V9.80883H90.4862V36.0968H86.5802ZM75.0482 24.8128V21.1548H102.018V24.8128H75.0482Z" fill="url(#paint0_linear_9_57)"/>
<defs>
<linearGradient id="paint0_linear_9_57" x1="162.52" y1="23.1603" x2="51.5501" y2="32.8321" gradientUnits="userSpaceOnUse">
<stop stop-color="#237249"/>
<stop offset="1" stop-color="#35C66B"/>
</linearGradient>
</defs>
</svg>
