<svg width="100" height="47" viewBox="0 0 100 47" fill="none" xmlns="http://www.w3.org/2000/svg">
<path d="M2.24442 46.6528V43.4908L20.2864 25.8208C21.9397 24.2088 23.1797 22.8035 24.0064 21.6048C24.8331 20.3648 25.3911 19.2075 25.6804 18.1328C25.9698 17.0582 26.1144 16.0455 26.1144 15.0948C26.1144 12.5735 25.2464 10.5895 23.5104 9.14283C21.8158 7.69616 19.2944 6.97283 15.9464 6.97283C13.3838 6.97283 11.1104 7.3655 9.12642 8.15083C7.18375 8.93616 5.50975 10.1555 4.10442 11.8088L0.942416 9.08083C2.63708 7.09683 4.80708 5.5675 7.45242 4.49283C10.0977 3.41816 13.0531 2.88083 16.3184 2.88083C19.2531 2.88083 21.7951 3.35616 23.9444 4.30683C26.0938 5.21616 27.7471 6.5595 28.9044 8.33683C30.1031 10.1142 30.7024 12.2015 30.7024 14.5988C30.7024 16.0042 30.4958 17.3888 30.0824 18.7528C29.7104 20.1168 29.0078 21.5635 27.9744 23.0928C26.9824 24.5808 25.5151 26.2755 23.5724 28.1768L7.01842 44.4208L5.77842 42.6848H32.6864V46.6528H2.24442ZM42.8147 38.2208L42.9387 32.5788L63.2127 14.1028H68.6067L54.2847 27.8048L51.8047 29.9128L42.8147 38.2208ZM39.3427 46.6528V0.648829H43.7447V46.6528H39.3427ZM64.5767 46.6528L50.9987 29.7268L53.8507 26.3168L69.9707 46.6528H64.5767Z" fill="white"/>
<path d="M84.453 38.0968V11.8088H88.359V38.0968H84.453ZM72.921 26.8128V23.1548H99.891V26.8128H72.921Z" fill="url(#paint0_linear_9_54)"/>
<defs>
<linearGradient id="paint0_linear_9_54" x1="159.649" y1="25.1603" x2="50.7233" y2="34.4765" gradientUnits="userSpaceOnUse">
<stop offset="0.476257" stop-color="#237249"/>
<stop offset="1" stop-color="#35C66B"/>
</linearGradient>
</defs>
</svg>
