<svg width="102" height="48" viewBox="0 0 102 48" fill="none" xmlns="http://www.w3.org/2000/svg">
<path d="M15.74 2.88083C19.584 2.88083 22.8287 3.74883 25.474 5.48483C28.1193 7.1795 30.124 9.63883 31.488 12.8628C32.852 16.0868 33.534 19.9928 33.534 24.5808C33.534 29.4582 32.6867 33.5708 30.992 36.9188C29.3387 40.2668 27.024 42.7882 24.048 44.4828C21.072 46.1775 17.6207 47.0248 13.694 47.0248C11.7513 47.0248 9.89133 46.8388 8.114 46.4668C6.378 46.0948 4.80733 45.4955 3.402 44.6688L5.2 41.0728C6.316 41.8168 7.59733 42.3542 9.044 42.6848C10.532 42.9742 12.0613 43.1188 13.632 43.1188C18.3027 43.1188 22.0227 41.6308 24.792 38.6548C27.6027 35.6788 29.008 31.2355 29.008 25.3248C29.008 24.3742 28.946 23.2375 28.822 21.9148C28.7393 20.5922 28.512 19.2695 28.14 17.9468L29.69 19.1248C29.2767 21.2742 28.388 23.1135 27.024 24.6428C25.7013 26.1308 24.048 27.2675 22.064 28.0528C20.1213 28.8382 17.9513 29.2308 15.554 29.2308C12.702 29.2308 10.16 28.6935 7.928 27.6188C5.73733 26.5442 4.022 25.0355 2.782 23.0928C1.542 21.1502 0.922 18.8562 0.922 16.2108C0.922 13.4828 1.56267 11.1268 2.844 9.14283C4.12533 7.15883 5.882 5.6295 8.114 4.55483C10.3873 3.43883 12.9293 2.88083 15.74 2.88083ZM15.926 6.66283C13.8593 6.66283 12.02 7.0555 10.408 7.84083C8.83733 8.58483 7.59733 9.6595 6.688 11.0648C5.77867 12.4702 5.324 14.1442 5.324 16.0868C5.324 18.9388 6.29533 21.2122 8.238 22.9068C10.222 24.6015 12.888 25.4488 16.236 25.4488C18.468 25.4488 20.4107 25.0355 22.064 24.2088C23.7587 23.3822 25.0607 22.2455 25.97 20.7988C26.9207 19.3522 27.396 17.7402 27.396 15.9628C27.396 14.3508 26.962 12.8422 26.094 11.4368C25.226 10.0315 23.9447 8.89483 22.25 8.02683C20.5553 7.1175 18.4473 6.66283 15.926 6.66283ZM44.5312 38.2208L44.6552 32.5788L64.9293 14.1028H70.3233L56.0012 27.8048L53.5213 29.9128L44.5312 38.2208ZM41.0592 46.6528V0.648829H45.4612V46.6528H41.0592ZM66.2933 46.6528L52.7152 29.7268L55.5672 26.3168L71.6873 46.6528H66.2933Z" fill="white"/>
<path d="M86.1696 38.0968V11.8088H90.0756V38.0968H86.1696ZM74.6376 26.8128V23.1548H101.608V26.8128H74.6376Z" fill="url(#paint0_linear_9_49)"/>
<defs>
<linearGradient id="paint0_linear_9_49" x1="161.867" y1="25.1603" x2="50.8973" y2="34.8321" gradientUnits="userSpaceOnUse">
<stop stop-color="#237249"/>
<stop offset="1" stop-color="#35C66B"/>
</linearGradient>
</defs>
</svg>
