<svg width="90" height="31" viewBox="0 0 90 31" fill="none" xmlns="http://www.w3.org/2000/svg">
<path d="M34.4297 9.49219C34.3906 9.67448 34.306 9.81771 34.1758 9.92188C34.0456 10.026 33.9023 10.0781 33.7461 10.0781C33.5117 10.0781 33.3229 10.0065 33.1797 9.86328C33.0365 9.70703 32.9648 9.53125 32.9648 9.33594C32.9648 9.14062 32.9844 8.95182 33.0234 8.76953C33.0625 8.57422 33.082 8.38542 33.082 8.20312C33.082 7.2526 32.7891 6.39974 32.2031 5.64453C31.6172 4.88932 30.7839 4.25781 29.7031 3.75C28.6354 3.22917 27.3333 2.83203 25.7969 2.55859C24.2604 2.28516 22.5482 2.14844 20.6602 2.14844C19.2148 2.14844 17.7565 2.24609 16.2852 2.44141C14.8268 2.6237 13.4206 2.89714 12.0664 3.26172C10.7253 3.61328 9.46875 4.0625 8.29688 4.60938C7.125 5.14323 6.10286 5.76823 5.23047 6.48438C4.37109 7.1875 3.69401 7.97526 3.19922 8.84766C2.70443 9.70703 2.45703 10.651 2.45703 11.6797C2.45703 12.474 2.6263 13.1771 2.96484 13.7891C3.31641 14.388 3.79167 14.9154 4.39062 15.3711C4.98958 15.8138 5.69271 16.1979 6.5 16.5234C7.32031 16.8359 8.20573 17.1029 9.15625 17.3242C10.1068 17.5326 11.0964 17.7083 12.125 17.8516C13.1536 17.9818 14.1888 18.0924 15.2305 18.1836L18.2383 18.4375C19.7357 18.5677 21.0768 18.7044 22.2617 18.8477C23.4466 18.9909 24.4883 19.1732 25.3867 19.3945C26.8841 19.7721 27.9909 20.3125 28.707 21.0156C29.4232 21.7188 29.7812 22.6562 29.7812 23.8281C29.7812 24.9609 29.4688 25.957 28.8438 26.8164C28.2188 27.6758 27.3659 28.3984 26.2852 28.9844C25.2044 29.5703 23.9414 30.013 22.4961 30.3125C21.0508 30.612 19.5013 30.7617 17.8477 30.7617C16.0508 30.7617 14.4688 30.638 13.1016 30.3906C11.7474 30.1562 10.6081 29.8958 9.68359 29.6094C8.77214 29.3099 8.07552 29.0365 7.59375 28.7891C7.11198 28.5417 6.85156 28.4049 6.8125 28.3789C6.57812 28.2487 6.46094 28.0404 6.46094 27.7539C6.46094 27.5326 6.53906 27.3568 6.69531 27.2266C6.85156 27.0833 7.02083 27.0117 7.20312 27.0117C7.34635 27.0117 7.47656 27.0508 7.59375 27.1289C7.60677 27.1289 7.82812 27.2461 8.25781 27.4805C8.70052 27.7018 9.35156 27.9492 10.2109 28.2227C11.0833 28.4961 12.1576 28.7435 13.4336 28.9648C14.7096 29.1862 16.194 29.2969 17.8867 29.2969C19.5664 29.2969 21.0508 29.1602 22.3398 28.8867C23.6289 28.6133 24.7096 28.2357 25.582 27.7539C26.4674 27.2591 27.1315 26.6862 27.5742 26.0352C28.0299 25.3711 28.2578 24.6549 28.2578 23.8867C28.2578 23.431 28.1732 23.0404 28.0039 22.7148C27.8477 22.3763 27.6263 22.0898 27.3398 21.8555C27.0534 21.6081 26.7083 21.3997 26.3047 21.2305C25.9141 21.0612 25.4844 20.918 25.0156 20.8008C24.5208 20.6706 23.987 20.5599 23.4141 20.4688C22.8542 20.3776 22.2747 20.2995 21.6758 20.2344C21.0768 20.1693 20.4714 20.1107 19.8594 20.0586C19.2604 20.0065 18.668 19.9544 18.082 19.9023L15.0742 19.6484C12.7044 19.4531 10.6341 19.1536 8.86328 18.75C7.10547 18.3333 5.64062 17.806 4.46875 17.168C3.29688 16.5169 2.41797 15.7422 1.83203 14.8438C1.24609 13.9453 0.953125 12.8971 0.953125 11.6992C0.953125 10.4753 1.22656 9.35547 1.77344 8.33984C2.33333 7.3112 3.08854 6.38672 4.03906 5.56641C5.0026 4.74609 6.1224 4.03646 7.39844 3.4375C8.6875 2.82552 10.0612 2.31771 11.5195 1.91406C12.9779 1.51042 14.4883 1.21094 16.0508 1.01562C17.6133 0.807292 19.1497 0.703125 20.6602 0.703125C22.5482 0.703125 24.1888 0.820312 25.582 1.05469C26.9883 1.27604 28.1862 1.56901 29.1758 1.93359C30.1784 2.28516 30.9987 2.6888 31.6367 3.14453C32.2747 3.60026 32.7891 4.04948 33.1797 4.49219C34.1042 5.57292 34.5664 6.80339 34.5664 8.18359C34.5664 8.63932 34.5208 9.07552 34.4297 9.49219ZM41.5977 27.8516C41.2721 27.8516 40.9857 27.8255 40.7383 27.7734C40.543 28.1641 40.3086 28.5286 40.0352 28.8672C39.7617 29.1927 39.4427 29.4792 39.0781 29.7266C38.7266 29.974 38.3294 30.1693 37.8867 30.3125C37.444 30.4557 36.9622 30.5273 36.4414 30.5273C35.8294 30.5273 35.2695 30.4167 34.7617 30.1953C34.2539 29.987 33.8112 29.694 33.4336 29.3164C33.056 28.9258 32.763 28.4635 32.5547 27.9297C32.3464 27.3828 32.2422 26.7839 32.2422 26.1328C32.2422 25.2995 32.3919 24.5768 32.6914 23.9648C32.9909 23.3398 33.3359 22.8255 33.7266 22.4219C34.1172 22.0052 34.5078 21.6992 34.8984 21.5039C35.2891 21.2956 35.582 21.1914 35.7773 21.1914C35.9987 21.1914 36.1615 21.25 36.2656 21.3672C36.3828 21.4844 36.4414 21.6406 36.4414 21.8359C36.4414 22.0573 36.3698 22.2266 36.2266 22.3438C36.0964 22.4479 35.9271 22.5521 35.7188 22.6562C35.5104 22.7604 35.2891 22.9102 35.0547 23.1055C34.8203 23.2878 34.599 23.5221 34.3906 23.8086C34.1953 24.0951 34.0326 24.4336 33.9023 24.8242C33.7721 25.2148 33.707 25.651 33.707 26.1328C33.707 26.5625 33.7721 26.9661 33.9023 27.3438C34.0326 27.7083 34.2214 28.0273 34.4688 28.3008C34.7161 28.5612 35.0091 28.7695 35.3477 28.9258C35.6862 29.069 36.0638 29.1406 36.4805 29.1406C37.2227 29.1406 37.8346 28.9714 38.3164 28.6328C38.8112 28.2812 39.1888 27.8385 39.4492 27.3047C38.681 26.901 38.0495 26.3281 37.5547 25.5859C37.0599 24.8438 36.8125 24.0104 36.8125 23.0859C36.8125 22.3438 36.9883 21.7383 37.3398 21.2695C37.7044 20.8008 38.1797 20.5664 38.7656 20.5664C39.1172 20.5664 39.4492 20.651 39.7617 20.8203C40.0742 20.9896 40.3477 21.2565 40.582 21.6211C40.8294 21.9857 41.0247 22.4544 41.168 23.0273C41.3112 23.6003 41.3828 24.2839 41.3828 25.0781C41.3828 25.4948 41.3307 25.931 41.2266 26.3867C41.3047 26.3997 41.3828 26.4062 41.4609 26.4062C41.5391 26.4062 41.6237 26.4062 41.7148 26.4062C42.1576 26.4062 42.5547 26.3542 42.9062 26.25C43.2578 26.1458 43.5768 25.9896 43.8633 25.7812C44.1497 25.5729 44.4036 25.306 44.625 24.9805C44.8594 24.6549 45.0807 24.2773 45.2891 23.8477C45.3281 23.7695 45.4128 23.6979 45.543 23.6328C45.6732 23.5547 45.8034 23.5156 45.9336 23.5156C46.1029 23.5156 46.2591 23.5872 46.4023 23.7305C46.5586 23.8607 46.6367 24.0365 46.6367 24.2578C46.6367 24.362 46.6107 24.4792 46.5586 24.6094C46.5065 24.7266 46.4544 24.8372 46.4023 24.9414C46.181 25.332 45.9206 25.7096 45.6211 26.0742C45.3346 26.4258 44.9896 26.7383 44.5859 27.0117C44.1953 27.2721 43.7526 27.4805 43.2578 27.6367C42.763 27.793 42.2096 27.8646 41.5977 27.8516ZM38.2578 22.9297C38.2578 23.1771 38.2904 23.4375 38.3555 23.7109C38.4206 23.9844 38.5182 24.2578 38.6484 24.5312C38.7917 24.7917 38.9609 25.0456 39.1562 25.293C39.3646 25.5273 39.6055 25.7292 39.8789 25.8984C39.918 25.625 39.9375 25.3581 39.9375 25.0977C39.9375 24.7461 39.9115 24.388 39.8594 24.0234C39.8073 23.6589 39.7292 23.3268 39.625 23.0273C39.5339 22.7148 39.4167 22.4674 39.2734 22.2852C39.1302 22.0898 38.9609 21.9922 38.7656 21.9922C38.6875 21.9922 38.5833 22.0508 38.4531 22.168C38.3229 22.2852 38.2578 22.5391 38.2578 22.9297ZM56.3633 24.5898C56.2201 24.8893 56.0378 25.2474 55.8164 25.6641C55.6081 26.0677 55.3672 26.4909 55.0938 26.9336C54.8203 27.3763 54.5143 27.819 54.1758 28.2617C53.8372 28.6914 53.4661 29.082 53.0625 29.4336C52.6719 29.7721 52.2487 30.0456 51.793 30.2539C51.3503 30.4753 50.875 30.5859 50.3672 30.5859C49.5859 30.5859 48.9154 30.3451 48.3555 29.8633C47.7956 29.3815 47.3203 28.75 46.9297 27.9688C46.5391 27.1875 46.2201 26.3021 45.9727 25.3125C45.7383 24.3099 45.556 23.2943 45.4258 22.2656C45.2956 21.224 45.2044 20.2148 45.1523 19.2383C45.1133 18.2617 45.0938 17.3958 45.0938 16.6406C45.0938 15.5469 45.1263 14.4141 45.1914 13.2422C45.2695 12.0703 45.3867 10.9245 45.543 9.80469C45.6992 8.6849 45.8945 7.6237 46.1289 6.62109C46.3763 5.61849 46.6628 4.73958 46.9883 3.98438C47.3268 3.22917 47.7109 2.63021 48.1406 2.1875C48.5703 1.74479 49.0586 1.52344 49.6055 1.52344C50.0352 1.52344 50.4193 1.6276 50.7578 1.83594C51.1094 2.03125 51.4023 2.35677 51.6367 2.8125C51.8711 3.26823 52.0534 3.86068 52.1836 4.58984C52.3138 5.31901 52.3789 6.21094 52.3789 7.26562C52.3789 8.56771 52.2422 9.91536 51.9688 11.3086C51.6953 12.6888 51.3242 14.082 50.8555 15.4883C50.3867 16.8945 49.8333 18.3008 49.1953 19.707C48.5573 21.1003 47.8737 22.4609 47.1445 23.7891C47.4701 25.4427 47.9062 26.7448 48.4531 27.6953C49 28.6328 49.6576 29.1016 50.4258 29.1016C50.9466 29.1016 51.4479 28.8997 51.9297 28.4961C52.4115 28.0794 52.8542 27.5911 53.2578 27.0312C53.6615 26.4714 54.013 25.9049 54.3125 25.332C54.625 24.7461 54.8659 24.2773 55.0352 23.9258C55.1003 23.7956 55.1914 23.6979 55.3086 23.6328C55.4258 23.5547 55.556 23.5156 55.6992 23.5156C55.9206 23.5156 56.0964 23.5938 56.2266 23.75C56.3698 23.9062 56.4414 24.082 56.4414 24.2773C56.4414 24.3555 56.4154 24.4596 56.3633 24.5898ZM46.5781 16.7383C46.5781 17.5716 46.5977 18.3724 46.6367 19.1406C46.6758 19.9089 46.7279 20.6445 46.793 21.3477C47.3398 20.293 47.8607 19.1732 48.3555 17.9883C48.8503 16.7904 49.2865 15.5859 49.6641 14.375C50.0417 13.151 50.3411 11.9401 50.5625 10.7422C50.7969 9.53125 50.9141 8.37891 50.9141 7.28516C50.9141 5.7487 50.7904 4.64844 50.543 3.98438C50.2956 3.32031 49.9635 2.98828 49.5469 2.98828C49.2734 2.98828 49.0065 3.17708 48.7461 3.55469C48.4987 3.93229 48.2643 4.44661 48.043 5.09766C47.8216 5.7487 47.6198 6.51693 47.4375 7.40234C47.2552 8.28776 47.099 9.23828 46.9688 10.2539C46.8516 11.2695 46.7539 12.3307 46.6758 13.4375C46.6107 14.5443 46.5781 15.6445 46.5781 16.7383ZM58.2383 14.668C58.2383 15.1628 58.0625 15.5859 57.7109 15.9375C57.3724 16.276 56.9557 16.4453 56.4609 16.4453C55.9661 16.4453 55.543 16.276 55.1914 15.9375C54.8529 15.5859 54.6836 15.1628 54.6836 14.668C54.6836 14.4206 54.7292 14.1927 54.8203 13.9844C54.9115 13.763 55.0352 13.5742 55.1914 13.418C55.3607 13.2487 55.5495 13.1185 55.7578 13.0273C55.9792 12.9362 56.2135 12.8906 56.4609 12.8906C56.7083 12.8906 56.9362 12.9362 57.1445 13.0273C57.3659 13.1185 57.5547 13.2487 57.7109 13.418C57.8802 13.5742 58.0104 13.763 58.1016 13.9844C58.1927 14.1927 58.2383 14.4206 58.2383 14.668ZM55.0742 26.1133C55.0742 24.2383 55.1914 22.3698 55.4258 20.5078C55.4518 20.3255 55.5299 20.1693 55.6602 20.0391C55.8034 19.8958 55.9857 19.8242 56.207 19.8242C56.4023 19.8242 56.5651 19.9023 56.6953 20.0586C56.8255 20.2018 56.8906 20.3711 56.8906 20.5664C56.8906 20.6445 56.8711 20.8789 56.832 21.2695C56.806 21.6602 56.7669 22.1289 56.7148 22.6758C56.6758 23.2096 56.6367 23.7826 56.5977 24.3945C56.5716 24.9935 56.5586 25.5469 56.5586 26.0547C56.5586 26.7448 56.6237 27.3047 56.7539 27.7344C56.8971 28.151 57.0729 28.4766 57.2812 28.7109C57.5026 28.9453 57.7305 29.1016 57.9648 29.1797C58.2122 29.2578 58.4466 29.2969 58.668 29.2969C59.0326 29.2969 59.4102 29.1667 59.8008 28.9062C60.1914 28.6458 60.5885 28.2812 60.9922 27.8125C61.4089 27.3438 61.8255 26.7839 62.2422 26.1328C62.6589 25.4688 63.069 24.7331 63.4727 23.9258C63.5378 23.7956 63.6289 23.6979 63.7461 23.6328C63.8633 23.5547 63.9935 23.5156 64.1367 23.5156C64.3451 23.5156 64.5143 23.5938 64.6445 23.75C64.7878 23.9062 64.8594 24.0755 64.8594 24.2578C64.8594 24.388 64.8333 24.4987 64.7812 24.5898C64.625 24.8893 64.4297 25.2539 64.1953 25.6836C63.9609 26.1133 63.694 26.556 63.3945 27.0117C63.0951 27.4674 62.763 27.9232 62.3984 28.3789C62.0469 28.8216 61.6693 29.2253 61.2656 29.5898C60.862 29.9414 60.4388 30.2279 59.9961 30.4492C59.5534 30.6706 59.1042 30.7812 58.6484 30.7812C58.0625 30.7812 57.5482 30.6576 57.1055 30.4102C56.6628 30.1628 56.2852 29.8307 55.9727 29.4141C55.6732 28.9974 55.4453 28.5091 55.2891 27.9492C55.1458 27.3763 55.0742 26.7643 55.0742 26.1133ZM57.1445 14.668C57.1445 14.4857 57.0729 14.3294 56.9297 14.1992C56.7995 14.056 56.6432 13.9844 56.4609 13.9844C56.2786 13.9844 56.1224 14.056 55.9922 14.1992C55.862 14.3294 55.7969 14.4857 55.7969 14.668C55.7969 14.8503 55.862 15.0065 55.9922 15.1367C56.1224 15.2669 56.2786 15.332 56.4609 15.332C56.6432 15.332 56.7995 15.2669 56.9297 15.1367C57.0729 15.0065 57.1445 14.8503 57.1445 14.668ZM65.7969 27.8516C66.0703 28.2292 66.4219 28.5352 66.8516 28.7695C67.2812 28.9909 67.8086 29.1016 68.4336 29.1016C69.0716 29.1016 69.651 28.9518 70.1719 28.6523C70.6927 28.3398 71.168 27.9362 71.5977 27.4414C72.0273 26.9466 72.4115 26.3932 72.75 25.7812C73.0885 25.1693 73.3945 24.5573 73.668 23.9453C73.7331 23.8021 73.8242 23.6979 73.9414 23.6328C74.0586 23.5547 74.1888 23.5156 74.332 23.5156C74.5534 23.5156 74.7292 23.5938 74.8594 23.75C75.0026 23.9062 75.0742 24.0755 75.0742 24.2578C75.0742 24.3229 75.0677 24.3815 75.0547 24.4336C75.0417 24.4727 75.0221 24.5182 74.9961 24.5703C74.0977 26.5495 73.1146 28.0404 72.0469 29.043C70.9922 30.0456 69.7943 30.5599 68.4531 30.5859C67.5938 30.5859 66.8516 30.4167 66.2266 30.0781C65.6016 29.7526 65.0872 29.3294 64.6836 28.8086C64.2799 28.2747 63.9805 27.6758 63.7852 27.0117C63.5898 26.3477 63.4922 25.6836 63.4922 25.0195C63.4922 24.3555 63.5703 23.7435 63.7266 23.1836C63.8958 22.6237 64.1302 22.1354 64.4297 21.7188C64.7422 21.3021 65.1068 20.9766 65.5234 20.7422C65.9531 20.5078 66.4219 20.3906 66.9297 20.3906C67.2292 20.3906 67.5221 20.4557 67.8086 20.5859C68.1081 20.7031 68.375 20.8789 68.6094 21.1133C68.8438 21.3346 69.0326 21.6081 69.1758 21.9336C69.319 22.2591 69.3906 22.6302 69.3906 23.0469C69.3906 23.5807 69.2995 24.082 69.1172 24.5508C68.9349 25.0195 68.681 25.4557 68.3555 25.8594C68.043 26.263 67.6654 26.6341 67.2227 26.9727C66.7799 27.3112 66.3047 27.6042 65.7969 27.8516ZM65.2109 26.582C65.6146 26.4128 65.9792 26.1979 66.3047 25.9375C66.6432 25.6771 66.9297 25.3906 67.1641 25.0781C67.3984 24.7656 67.5807 24.4401 67.7109 24.1016C67.8411 23.75 67.9062 23.3984 67.9062 23.0469C67.9062 22.6562 67.8086 22.3633 67.6133 22.168C67.418 21.9596 67.1901 21.8555 66.9297 21.8555C66.5781 21.8555 66.2786 21.9531 66.0312 22.1484C65.7839 22.3438 65.582 22.5977 65.4258 22.9102C65.2695 23.2227 65.1523 23.5742 65.0742 23.9648C65.0091 24.3424 64.9766 24.7201 64.9766 25.0977C64.9766 25.332 64.9961 25.5794 65.0352 25.8398C65.0872 26.1003 65.1458 26.3477 65.2109 26.582ZM80.1719 27.8125C79.7161 28.5547 79.1823 29.1406 78.5703 29.5703C77.9714 30 77.3659 30.2148 76.7539 30.2148C76.2591 30.2148 75.8164 30.1237 75.4258 29.9414C75.0352 29.7591 74.6966 29.5052 74.4102 29.1797C74.1237 28.8411 73.9023 28.4375 73.7461 27.9688C73.6029 27.5 73.5312 26.9727 73.5312 26.3867C73.5312 25.4753 73.6159 24.668 73.7852 23.9648C73.9674 23.2617 74.1628 22.6758 74.3711 22.207C74.5794 21.7253 74.7747 21.3607 74.957 21.1133C75.1393 20.8659 75.2305 20.7422 75.2305 20.7422C75.2956 20.6641 75.3737 20.6055 75.4648 20.5664C75.569 20.5273 75.6732 20.5078 75.7773 20.5078C75.9857 20.5078 76.1549 20.5859 76.2852 20.7422C76.4284 20.8854 76.5 21.0547 76.5 21.25C76.5 21.3281 76.4805 21.4062 76.4414 21.4844C76.4154 21.5625 76.3828 21.6406 76.3438 21.7188C76.2786 21.8359 76.1745 22.0182 76.0312 22.2656C75.888 22.5 75.7383 22.8125 75.582 23.2031C75.4258 23.5938 75.2891 24.056 75.1719 24.5898C75.0547 25.1107 74.9961 25.7096 74.9961 26.3867C74.9961 27.1549 75.1458 27.7409 75.4453 28.1445C75.7578 28.5352 76.194 28.7305 76.7539 28.7305C76.9883 28.7305 77.2552 28.6589 77.5547 28.5156C77.8672 28.3594 78.1667 28.125 78.4531 27.8125C78.7526 27.5 79.013 27.1029 79.2344 26.6211C79.4557 26.1393 79.599 25.5729 79.6641 24.9219L79.957 21.5625C79.9831 21.3672 80.0677 21.2044 80.2109 21.0742C80.3542 20.944 80.5234 20.8789 80.7188 20.8789C80.9401 20.8789 81.1159 20.9635 81.2461 21.1328C81.3763 21.2891 81.4414 21.4714 81.4414 21.6797L81.1875 24.9219C81.1615 25.1953 81.168 25.5534 81.207 25.9961C81.2591 26.4388 81.3568 26.875 81.5 27.3047C81.6432 27.7344 81.8581 28.1055 82.1445 28.418C82.431 28.7174 82.8086 28.8672 83.2773 28.8672C83.6159 28.8672 83.9479 28.7826 84.2734 28.6133C84.599 28.431 84.9115 28.1966 85.2109 27.9102C85.5104 27.6237 85.7839 27.3047 86.0312 26.9531C86.2917 26.5885 86.526 26.224 86.7344 25.8594C86.9557 25.4948 87.1445 25.1497 87.3008 24.8242C87.457 24.4857 87.5872 24.1992 87.6914 23.9648C87.7565 23.8216 87.8477 23.7109 87.9648 23.6328C88.082 23.5547 88.2122 23.5156 88.3555 23.5156C88.5898 23.5156 88.7721 23.5938 88.9023 23.75C89.0326 23.9062 89.0977 24.0755 89.0977 24.2578C89.0977 24.362 89.0781 24.4596 89.0391 24.5508C88.987 24.6549 88.8828 24.8763 88.7266 25.2148C88.5833 25.5404 88.388 25.918 88.1406 26.3477C87.9062 26.7643 87.6198 27.207 87.2812 27.6758C86.9427 28.1445 86.5651 28.5807 86.1484 28.9844C85.7318 29.375 85.276 29.7005 84.7812 29.9609C84.2995 30.2083 83.7786 30.332 83.2188 30.332C82.4505 30.332 81.8125 30.1172 81.3047 29.6875C80.7969 29.2448 80.4193 28.6198 80.1719 27.8125Z" fill="black"/>
</svg>
